HIERARCHY
ROOT joint_Root
{
	OFFSET 0.0 0.0 0.0
	CHANNELS 6 Xposition Yposition Zposition Zrotation Xrotation Yrotation 
	JOINT Hips
	{
		OFFSET 4.5925 91.4895 -427.239
		CHANNELS 6 Xposition Yposition Zposition Zrotation Xrotation Yrotation 
		JOINT Spine
		{
			OFFSET 15.7357 0.0 0.0
			CHANNELS 6 Xposition Yposition Zposition Zrotation Xrotation Yrotation 
			JOINT Chest
			{
				OFFSET 8.98455 -0.406207 0.0
				CHANNELS 6 Xposition Yposition Zposition Zrotation Xrotation Yrotation 
				JOINT Neck
				{
					OFFSET 16.3773 0.0 0.0
					CHANNELS 6 Xposition Yposition Zposition Zrotation Xrotation Yrotation 
					JOINT Head
					{
						OFFSET 6.45672 0.0 0.0
						CHANNELS 6 Xposition Yposition Zposition Zrotation Xrotation Yrotation 
						End Site
						{
							OFFSET 0.0 0.0 0.0
						}
					}
				}
				JOINT Shoulder_L
				{
					OFFSET 12.9942 -0.242716 4.98039
					CHANNELS 6 Xposition Yposition Zposition Zrotation Xrotation Yrotation 
					JOINT UpperArm_L
					{
						OFFSET 5.34809 0.0 0.0
						CHANNELS 6 Xposition Yposition Zposition Zrotation Xrotation Yrotation 
						JOINT LowerArm_L
						{
							OFFSET 24.3286 1.87007e-05 0.0
							CHANNELS 6 Xposition Yposition Zposition Zrotation Xrotation Yrotation 
							JOINT Hand_L
							{
								OFFSET 22.2916 0.0 0.0
								CHANNELS 6 Xposition Yposition Zposition Zrotation Xrotation Yrotation 
								End Site
								{
									OFFSET 0.0 0.0 0.0
								}
							}
						}
					}
				}
				JOINT Shoulder_R
				{
					OFFSET 12.9945 -0.242716 -4.98039
					CHANNELS 6 Xposition Yposition Zposition Zrotation Xrotation Yrotation 
					JOINT UpperArm_R
					{
						OFFSET -5.34813 0.0 0.0
						CHANNELS 6 Xposition Yposition Zposition Zrotation Xrotation Yrotation 
						JOINT LowerArm_R
						{
							OFFSET -24.3289 0.000322201 0.0
							CHANNELS 6 Xposition Yposition Zposition Zrotation Xrotation Yrotation 
							JOINT Hand_R
							{
								OFFSET -22.2915 -0.000108084 0.0
								CHANNELS 6 Xposition Yposition Zposition Zrotation Xrotation Yrotation 
								End Site
								{
									OFFSET 0.0 0.0 0.0
								}
							}
						}
					}
				}
			}
		}
		JOINT UpperLeg_L
		{
			OFFSET -2.19248 -6.46944 0.0
			CHANNELS 6 Xposition Yposition Zposition Zrotation Xrotation Yrotation 
			JOINT LowerLeg_L
			{
				OFFSET 39.0811 0.0 -1.23785e-05
				CHANNELS 6 Xposition Yposition Zposition Zrotation Xrotation Yrotation 
				JOINT Foot_L
				{
					OFFSET 40.9854 0.0 -1.26872e-05
					CHANNELS 6 Xposition Yposition Zposition Zrotation Xrotation Yrotation 
					JOINT Toes_L
					{
						OFFSET 11.7543 0.0 0.0
						CHANNELS 6 Xposition Yposition Zposition Zrotation Xrotation Yrotation 
						End Site
						{
							OFFSET 0.0 0.0 0.0
						}
					}
				}
			}
		}
		JOINT UpperLeg_R
		{
			OFFSET -2.19251 6.46944 0.0
			CHANNELS 6 Xposition Yposition Zposition Zrotation Xrotation Yrotation 
			JOINT LowerLeg_R
			{
				OFFSET -39.0811 -0.00228153 -0.0401928
				CHANNELS 6 Xposition Yposition Zposition Zrotation Xrotation Yrotation 
				JOINT Foot_R
				{
					OFFSET -40.9854 0.0 0.0
					CHANNELS 6 Xposition Yposition Zposition Zrotation Xrotation Yrotation 
					JOINT Toes_R
					{
						OFFSET -11.7543 0.0 0.0
						CHANNELS 6 Xposition Yposition Zposition Zrotation Xrotation Yrotation 
						End Site
						{
							OFFSET 0.0 0.0 0.0
						}
					}
				}
			}
		}
	}
}
MOTION
Frames:	8
Frame Time:	0.0333333
0.000000 0.000000 0.000000 0.000000 0.000000 -0.000000 -0.361253 90.168300 -5.733790 89.028000 -1.739480 11.236900 15.735700 0.000005 -0.000001 89.510900 77.417200 -89.654300 8.984550 -0.406207 -0.000000 17.398500 -0.223139 -0.253253 16.377300 -0.000001 -0.000001 3.672500 -5.209480 2.143680 6.456720 -0.000001 -0.000000 -7.449640 -4.292910 0.313736 12.994200 -0.242716 4.980390 -91.279600 6.651440 -79.084700 5.348090 -0.000007 -0.000001 -56.838900 35.738200 -28.979800 24.328600 0.000019 0.000005 8.515370 22.121300 -21.682800 22.291600 -0.000001 0.000005 13.977300 5.150890 3.921910 12.994500 -0.242716 -4.980390 89.246900 10.823600 -85.995800 -5.348130 -0.000001 -0.000004 -58.402300 35.039700 -22.667000 -24.328900 0.000322 -0.000009 2.467840 6.086670 -22.128100 -22.291500 -0.000108 -0.000004 18.314600 5.384840 -2.451250 -2.192480 -6.469440 -0.000000 -174.985000 -10.668300 -5.520550 39.081100 -0.000007 -0.000012 -0.190373 0.265067 35.686600 40.985400 -0.000006 -0.000013 0.556517 4.410860 -68.879900 11.754300 -0.000000 0.000003 -0.000063 -0.000693 -16.604400 -2.192510 6.469440 -0.000001 175.764000 19.173700 176.154000 -39.081100 -0.002282 -0.040193 -0.172866 0.254265 34.714900 -40.985400 0.000008 0.000006 3.933650 10.308500 -69.538400 -11.754300 -0.000006 -0.000006 -0.004247 -0.053982 -18.769100
0.000000 0.000000 0.000000 0.000000 0.000000 -0.000000 -0.354413 90.173800 -5.720160 89.021600 -1.787910 11.207800 15.735700 0.000005 -0.000001 89.400200 77.412100 -89.558900 8.984550 -0.406207 -0.000000 17.408200 -0.272275 -0.276212 16.377300 -0.000001 -0.000001 3.658200 -5.181470 2.172740 6.456720 -0.000001 -0.000000 -7.573220 -4.234410 0.361835 12.994200 -0.242716 4.980390 -91.277200 6.574470 -78.980800 5.348090 -0.000007 -0.000001 -57.188900 35.198000 -28.742300 24.328600 0.000019 0.000005 9.010350 22.420900 -22.574800 22.291600 -0.000001 0.000005 14.044800 5.145110 4.059610 12.994500 -0.242716 -4.980390 89.223700 10.784400 -85.858100 -5.348130 -0.000001 -0.000004 -58.323800 34.264800 -22.592100 -24.328900 0.000322 -0.000009 2.746980 6.360720 -23.425200 -22.291500 -0.000108 -0.000004 18.720200 5.383690 -2.414780 -2.192480 -6.469440 -0.000000 -174.983000 -10.707600 -5.530610 39.081100 -0.000007 -0.000012 -0.189138 0.263547 35.666000 40.985400 -0.000006 -0.000013 0.557088 4.396590 -68.875700 11.754300 -0.000000 0.000003 -0.000060 -0.000664 -16.603300 -2.192510 6.469440 -0.000001 175.775000 19.197900 176.142000 -39.081100 -0.002282 -0.040193 -0.169188 0.249153 34.693600 -40.985400 0.000008 0.000006 3.997970 10.352300 -69.547300 -11.754300 -0.000006 -0.000006 -0.004153 -0.053022 -18.730000
0.000000 0.000000 0.000000 0.000000 0.000000 -0.000000 -0.340535 90.177500 -5.710470 89.024600 -1.858730 11.140400 15.735700 0.000005 -0.000001 89.365300 77.419700 -89.540800 8.984550 -0.406207 -0.000000 17.392800 -0.288571 -0.307434 16.377300 -0.000001 -0.000001 3.649270 -5.167250 2.240790 6.456720 -0.000001 -0.000000 -7.764630 -4.205770 0.352909 12.994200 -0.242716 4.980390 -91.283000 6.476690 -78.770100 5.348090 -0.000007 -0.000001 -57.535300 34.404300 -28.489600 24.328600 0.000019 0.000005 9.773820 22.567600 -24.173000 22.291600 -0.000001 0.000005 14.311000 5.132290 4.362050 12.994500 -0.242716 -4.980390 89.188400 10.678700 -85.628500 -5.348130 -0.000001 -0.000004 -58.421100 32.956600 -22.388500 -24.328900 0.000322 -0.000009 3.113440 6.570230 -25.432200 -22.291500 -0.000108 -0.000004 19.032500 5.388030 -2.552130 -2.192480 -6.469440 -0.000000 -174.980000 -10.791100 -5.552820 39.081100 -0.000007 -0.000012 -0.192891 0.268974 35.646000 40.985400 -0.000006 -0.000013 0.570936 4.432130 -68.896400 11.754300 -0.000000 0.000003 -0.000062 -0.000678 -16.603800 -2.192510 6.469440 -0.000001 175.786000 19.179600 176.076000 -39.081100 -0.002282 -0.040193 -0.173150 0.255094 34.670700 -40.985400 0.000008 0.000006 3.939320 10.401300 -69.517500 -11.754300 -0.000006 -0.000006 -0.004122 -0.052698 -18.716800
0.000000 0.000000 0.000000 0.000000 0.000000 -0.000000 -0.330432 90.186600 -5.710920 89.025200 -1.865000 11.056000 15.735700 0.000005 -0.000001 89.310500 77.445700 -89.491700 8.984550 -0.406207 -0.000000 17.340500 -0.312022 -0.315290 16.377300 -0.000001 -0.000001 3.687790 -5.152420 2.300320 6.456720 -0.000001 -0.000000 -7.983040 -4.194330 0.349184 12.994200 -0.242716 4.980390 -91.276600 6.336450 -78.585000 5.348090 -0.000007 -0.000001 -57.838200 33.401000 -28.214800 24.328600 0.000019 0.000005 10.700700 22.327200 -26.446000 22.291600 -0.000001 0.000005 15.381700 5.118840 4.678490 12.994500 -0.242716 -4.980390 89.146400 10.486200 -85.319800 -5.348130 -0.000001 -0.000004 -58.480800 31.483800 -22.103600 -24.328900 0.000322 -0.000009 3.619080 6.745030 -28.309300 -22.291500 -0.000108 -0.000004 20.030500 5.388820 -2.577700 -2.192480 -6.469440 -0.000000 -174.998000 -10.839700 -5.628580 39.081100 -0.000007 -0.000012 -0.190469 0.265962 35.608700 40.985400 -0.000006 -0.000013 0.584148 4.453070 -68.868600 11.754300 -0.000000 0.000003 -0.000061 -0.000672 -16.603600 -2.192510 6.469440 -0.000001 175.801000 19.209600 176.009000 -39.081100 -0.002282 -0.040193 -0.170435 0.251578 34.627200 -40.985400 0.000008 0.000006 3.923360 10.451000 -69.490800 -11.754300 -0.000006 -0.000006 -0.004144 -0.052934 -18.726400
0.000000 0.000000 0.000000 0.000000 0.000000 -0.000000 -0.320612 90.201500 -5.714720 89.033200 -1.899810 11.011200 15.735700 0.000005 -0.000001 89.301100 77.464400 -89.500500 8.984550 -0.406207 -0.000000 17.302900 -0.317109 -0.351217 16.377300 -0.000001 -0.000001 3.813400 -5.116150 2.368390 6.456720 -0.000001 -0.000000 -8.242160 -4.156110 0.410561 12.994200 -0.242716 4.980390 -91.276300 6.200520 -78.344700 5.348090 -0.000007 -0.000001 -57.988000 31.972100 -28.068800 24.328600 0.000019 0.000005 11.860600 21.949400 -29.329200 22.291600 -0.000001 0.000005 15.990000 5.117110 4.717850 12.994500 -0.242716 -4.980390 89.109600 10.295000 -85.029900 -5.348130 -0.000001 -0.000004 -58.425500 29.695700 -21.911300 -24.328900 0.000322 -0.000009 4.039410 6.536210 -31.822100 -22.291500 -0.000108 -0.000004 21.258800 5.393350 -2.721910 -2.192480 -6.469440 -0.000000 -175.017000 -10.892900 -5.640500 39.081100 -0.000007 -0.000012 -0.188538 0.263941 35.539200 40.985400 -0.000006 -0.000013 0.583706 4.423880 -68.829900 11.754300 -0.000000 0.000003 -0.000064 -0.000705 -16.604800 -2.192510 6.469440 -0.000001 175.791000 19.249700 175.991000 -39.081100 -0.002282 -0.040193 -0.171352 0.253482 34.566200 -40.985400 0.000008 0.000006 3.958580 10.521100 -69.463900 -11.754300 -0.000006 -0.000006 -0.004068 -0.052146 -18.694300
0.000000 0.000000 0.000000 0.000000 0.000000 -0.000000 -0.312843 90.217600 -5.732170 89.030600 -1.918550 10.938900 15.735700 0.000005 -0.000001 89.309600 77.490300 -89.521900 8.984550 -0.406207 -0.000000 17.251100 -0.313864 -0.377774 16.377300 -0.000001 -0.000001 3.961650 -5.051560 2.405510 6.456720 -0.000001 -0.000000 -8.534940 -4.125300 0.512853 12.994200 -0.242716 4.980390 -91.280400 6.113440 -78.147200 5.348090 -0.000007 -0.000001 -57.792900 30.361800 -28.241100 24.328600 0.000019 0.000005 13.448300 21.894200 -32.670000 22.291600 -0.000001 0.000005 17.074600 5.103010 5.043130 12.994500 -0.242716 -4.980390 89.068900 10.117300 -84.714200 -5.348130 -0.000001 -0.000004 -58.203400 27.597500 -21.927200 -24.328900 0.000322 -0.000009 4.599030 6.406390 -35.793900 -22.291500 -0.000108 -0.000004 22.244600 5.400820 -2.963310 -2.192480 -6.469440 -0.000000 -175.029000 -10.926900 -5.686630 39.081100 -0.000007 -0.000012 -0.188374 0.264394 35.469300 40.985400 -0.000006 -0.000013 0.598068 4.459000 -68.787500 11.754300 -0.000000 0.000003 -0.000062 -0.000683 -16.604000 -2.192510 6.469440 -0.000001 175.819000 19.280100 175.931000 -39.081100 -0.002282 -0.040193 -0.168271 0.249666 34.495900 -40.985400 0.000008 0.000006 3.981080 10.566300 -69.415100 -11.754300 -0.000006 -0.000006 -0.004281 -0.054336 -18.783500
0.000000 0.000000 0.000000 0.000000 0.000000 -0.000000 -0.311321 90.233700 -5.748850 89.041800 -1.942710 10.911000 15.735700 0.000005 -0.000001 89.286000 77.507800 -89.516300 8.984550 -0.406207 -0.000000 17.216000 -0.324999 -0.412201 16.377300 -0.000001 -0.000001 4.141680 -4.965570 2.422130 6.456720 -0.000001 -0.000000 -8.853800 -4.082980 0.610236 12.994200 -0.242716 4.980390 -91.288400 6.041070 -77.937500 5.348090 -0.000007 -0.000001 -57.512200 28.355600 -28.581600 24.328600 0.000019 0.000005 15.557100 22.106000 -36.492800 22.291600 -0.000001 0.000005 18.359900 5.094450 5.239620 12.994500 -0.242716 -4.980390 89.030400 9.919770 -84.389100 -5.348130 -0.000001 -0.000004 -57.781800 25.454500 -22.310000 -24.328900 0.000322 -0.000009 5.693180 6.821980 -40.007300 -22.291500 -0.000108 -0.000004 23.727200 5.402560 -3.021350 -2.192480 -6.469440 -0.000000 -175.037000 -10.987500 -5.687780 39.081100 -0.000007 -0.000012 -0.184252 0.259358 35.390900 40.985400 -0.000006 -0.000013 0.611305 4.508110 -68.734400 11.754300 -0.000000 0.000003 -0.000062 -0.000678 -16.603800 -2.192510 6.469440 -0.000001 175.821000 19.326700 175.911000 -39.081100 -0.002282 -0.040193 -0.165497 0.246097 34.445000 -40.985400 0.000008 0.000006 4.091320 10.592700 -69.395800 -11.754300 -0.000006 -0.000006 -0.004167 -0.053169 -18.736000
0.000000 0.000000 0.000000 0.000000 0.000000 -0.000000 -0.303518 90.236200 -5.796810 89.053800 -1.908270 10.855200 15.735700 0.000005 -0.000001 89.153800 77.544900 -89.400900 8.984550 -0.406207 -0.000000 17.140900 -0.381851 -0.437481 16.377300 -0.000001 -0.000001 4.329460 -4.884660 2.461910 6.456720 -0.000001 -0.000000 -9.106030 -4.012270 0.646590 12.994200 -0.242716 4.980390 -91.276400 5.922080 -77.814000 5.348090 -0.000007 -0.000001 -57.362700 25.929900 -28.975400 24.328600 0.000019 0.000005 17.696400 21.855600 -40.599300 22.291600 -0.000001 0.000005 19.851500 5.070470 5.780140 12.994500 -0.242716 -4.980390 89.005400 9.707890 -84.121900 -5.348130 -0.000001 -0.000004 -57.185500 23.206000 -23.003500 -24.328900 0.000322 -0.000009 7.138630 7.350490 -44.390900 -22.291500 -0.000108 -0.000004 25.260200 5.396450 -2.823430 -2.192480 -6.469440 -0.000000 -175.074000 -10.970100 -5.780690 39.081100 -0.000007 -0.000012 -0.187128 0.263511 35.380200 40.985400 -0.000006 -0.000013 0.615985 4.500330 -68.691600 11.754300 -0.000000 0.000003 -0.000062 -0.000679 -16.603800 -2.192510 6.469440 -0.000001 175.810000 19.358600 175.833000 -39.081100 -0.002282 -0.040193 -0.169952 0.252848 34.418000 -40.985400 0.000008 0.000006 3.911900 10.662600 -69.310300 -11.754300 -0.000006 -0.000006 -0.003984 -0.051269 -18.658600
